<svg width="512" height="512" viewBox="0 0 512 512" fill="none" xmlns="http://www.w3.org/2000/svg">
<path d="M405.333 320H490.667V64H405.333M320 64H128C110.293 64 95.1466 74.6667 88.7466 90.0267L24.32 240.427C22.4 245.333 21.3333 250.453 21.3333 256V298.667C21.3333 309.983 25.8285 320.835 33.8301 328.837C41.8316 336.838 52.6841 341.333 64 341.333H198.613L178.347 438.827C177.92 440.96 177.707 443.093 177.707 445.44C177.707 454.4 181.333 462.293 187.093 468.053L209.707 490.667L350.08 350.08C357.973 342.4 362.667 331.733 362.667 320V106.667C362.667 95.3508 358.171 84.4983 350.17 76.4968C342.168 68.4952 331.316 64 320 64Z" fill="#111111"/>
</svg>
