<svg width="470" height="427" viewBox="0 0 470 427" fill="none" xmlns="http://www.w3.org/2000/svg">
<path d="M469.667 192.333C469.667 181.017 465.171 170.165 457.17 162.163C449.168 154.162 438.316 149.667 427 149.667H292.173L312.653 52.1733C313.08 50.04 313.293 47.6933 313.293 45.3467C313.293 36.6 309.667 28.4933 303.907 22.7333L281.293 0.333328L140.92 140.707C133.027 148.6 128.333 159.267 128.333 171V384.333C128.333 395.649 132.829 406.502 140.83 414.503C148.832 422.505 159.684 427 171 427H363C380.707 427 395.853 416.333 402.253 400.973L466.68 250.573C468.6 245.667 469.667 240.547 469.667 235V192.333ZM0.333328 427H85.6667V171H0.333328V427Z" fill="#111111"/>
</svg>
